<svg id="svg" version="1.1" xmlns="http://www.w3.org/2000/svg" xmlns:xlink="http://www.w3.org/1999/xlink" width="400" height="100" viewBox="0, 0, 400,100"><g id="svgg"><path id="path0" d="M279.167 21.500 L 279.167 23.500 281.667 23.500 L 284.167 23.500 284.167 45.250 L 284.167 67.000 286.667 67.000 L 289.167 67.000 289.167 43.250 L 289.167 19.500 284.167 19.500 L 279.167 19.500 279.167 21.500 M341.333 43.250 L 341.333 67.000 343.250 67.000 L 345.167 67.000 345.167 63.219 L 345.167 59.439 345.630 60.344 C 347.579 64.156,350.423 66.430,354.917 67.772 C 357.008 68.396,362.706 68.144,364.583 67.343 C 364.767 67.265,365.317 67.038,365.807 66.839 C 366.819 66.428,368.701 65.310,369.329 64.747 C 369.560 64.539,370.069 64.090,370.458 63.749 C 376.942 58.067,377.850 44.980,372.267 37.681 C 370.521 35.399,366.380 32.333,365.043 32.333 C 364.925 32.333,364.699 32.263,364.539 32.177 C 362.688 31.174,356.810 31.184,354.083 32.195 C 350.665 33.462,347.219 36.396,346.288 38.833 C 346.236 38.971,346.187 34.677,346.180 29.292 L 346.167 19.500 343.750 19.500 L 341.333 19.500 341.333 43.250 M133.333 24.167 L 133.333 28.500 135.333 28.500 L 137.333 28.500 137.333 47.917 L 137.333 67.333 143.333 67.333 L 149.333 67.333 149.333 43.583 L 149.333 19.833 141.333 19.833 L 133.333 19.833 133.333 24.167 M18.333 30.338 C 15.753 30.774,15.124 30.946,13.333 31.703 C 10.113 33.065,7.723 34.882,5.816 37.417 C 5.061 38.420,4.000 40.087,4.000 40.269 C 4.000 40.323,3.892 40.603,3.760 40.891 C 2.591 43.455,2.172 45.707,2.175 49.417 C 2.178 52.548,2.666 55.980,3.193 56.575 C 3.270 56.662,3.333 56.844,3.333 56.978 C 3.333 58.383,6.949 63.273,9.100 64.778 C 10.259 65.589,11.923 66.540,12.728 66.851 C 13.198 67.033,13.820 67.291,14.109 67.424 C 14.397 67.558,14.776 67.667,14.950 67.667 C 15.124 67.667,15.338 67.731,15.425 67.809 C 16.257 68.558,24.310 68.882,27.083 68.279 C 33.860 66.804,38.997 62.707,40.910 57.250 C 41.070 56.792,41.263 56.267,41.338 56.083 C 42.156 54.084,42.427 46.899,41.779 44.417 C 41.083 41.751,39.686 38.687,38.716 37.696 C 38.597 37.575,38.500 37.417,38.500 37.344 C 38.500 37.160,36.075 34.739,35.349 34.198 C 35.020 33.953,34.712 33.710,34.667 33.659 C 34.284 33.234,31.665 31.903,30.083 31.330 C 26.639 30.082,22.112 29.700,18.333 30.338 M170.917 30.335 C 169.249 30.630,168.209 30.888,167.583 31.161 C 164.460 32.525,163.079 33.401,161.417 35.079 C 159.765 36.745,158.333 38.623,158.333 39.123 C 158.333 39.239,158.258 39.333,158.167 39.333 C 158.075 39.333,158.000 39.407,158.000 39.497 C 158.000 39.588,157.781 40.114,157.512 40.668 C 157.244 41.222,156.973 41.917,156.910 42.212 C 156.847 42.508,156.738 42.825,156.668 42.917 C 156.525 43.104,156.253 44.460,155.983 46.333 C 155.737 48.043,155.887 52.622,156.235 54.000 C 157.289 58.179,158.602 60.601,161.249 63.256 C 164.181 66.196,166.038 67.205,170.583 68.327 C 174.651 69.331,181.061 68.353,184.667 66.179 C 186.375 65.149,188.590 63.173,189.333 62.017 C 189.471 61.803,189.715 61.456,189.875 61.246 C 190.035 61.036,190.167 60.818,190.167 60.762 C 190.167 60.706,190.348 60.373,190.569 60.023 C 190.966 59.394,192.000 56.540,192.000 56.074 C 192.000 55.869,191.186 55.833,186.538 55.833 L 181.076 55.833 180.749 56.441 C 179.097 59.507,172.178 59.905,169.412 57.093 C 168.553 56.220,167.167 53.514,167.167 52.710 C 167.167 52.686,172.904 52.667,179.917 52.667 L 192.667 52.667 192.658 50.042 C 192.645 46.109,192.272 43.724,191.283 41.250 C 190.935 40.378,189.532 37.675,189.303 37.435 C 189.182 37.308,188.933 36.989,188.750 36.727 C 185.225 31.685,177.973 29.085,170.917 30.335 M69.333 30.432 C 63.873 31.422,60.528 34.148,58.203 39.500 C 58.067 39.815,58.020 38.864,58.011 35.625 L 58.000 31.333 53.250 31.333 L 48.500 31.333 48.500 55.833 L 48.500 80.333 54.500 80.333 L 60.500 80.333 60.500 72.000 C 60.500 67.417,60.526 63.667,60.557 63.667 C 60.588 63.667,61.132 64.180,61.765 64.807 C 67.649 70.633,79.436 69.565,84.432 62.754 C 84.837 62.202,85.225 61.675,85.294 61.583 C 86.063 60.567,87.310 57.223,87.778 54.917 C 88.168 53.002,88.221 45.861,87.858 44.250 C 87.571 42.976,87.029 41.016,86.844 40.583 C 86.534 39.860,85.413 37.574,85.291 37.417 C 85.220 37.325,84.884 36.875,84.545 36.417 C 82.857 34.136,80.031 31.983,77.857 31.321 C 75.157 30.499,75.068 30.484,72.417 30.420 C 70.950 30.385,69.563 30.390,69.333 30.432 M93.883 44.208 C 93.954 58.155,93.900 57.235,94.839 60.417 C 96.361 65.573,100.708 68.500,106.843 68.500 C 112.937 68.500,116.406 66.184,118.326 60.833 L 118.655 59.917 118.661 63.625 L 118.667 67.333 123.417 67.333 L 128.167 67.333 128.167 49.333 L 128.167 31.333 122.250 31.333 L 116.333 31.333 116.328 41.708 C 116.321 52.719,116.254 53.855,115.525 55.284 C 114.144 57.991,109.707 58.713,107.459 56.597 C 105.633 54.879,105.667 55.150,105.667 42.184 L 105.667 31.333 99.742 31.333 L 93.818 31.333 93.883 44.208 M219.750 31.504 C 214.071 32.094,209.198 35.479,206.799 40.500 C 206.157 41.844,205.833 42.667,205.833 42.958 C 205.833 43.128,205.770 43.338,205.692 43.425 C 205.000 44.203,204.614 51.579,205.143 53.917 C 205.711 56.425,207.209 60.262,207.703 60.472 C 207.775 60.503,207.833 60.603,207.833 60.696 C 207.833 60.997,209.153 62.643,210.333 63.813 C 216.296 69.724,228.149 69.640,234.150 63.644 C 234.551 63.244,235.074 62.654,235.313 62.333 C 235.553 62.012,235.792 61.712,235.847 61.667 C 236.556 61.067,238.000 56.977,238.000 55.569 L 238.000 55.158 235.546 55.204 L 233.092 55.250 232.964 55.999 C 231.888 62.312,222.898 65.729,216.299 62.333 C 211.135 59.676,208.493 51.714,210.491 44.833 C 210.960 43.218,211.670 41.500,211.870 41.500 C 211.941 41.500,212.000 41.403,212.000 41.284 C 212.000 40.911,213.898 38.794,215.067 37.864 C 217.156 36.202,223.073 35.431,225.917 36.451 C 227.567 37.042,228.000 37.233,228.000 37.370 C 228.000 37.441,228.098 37.500,228.218 37.500 C 228.427 37.500,229.170 38.049,229.910 38.750 C 231.044 39.825,232.206 41.835,232.494 43.221 L 232.690 44.167 235.095 44.167 L 237.500 44.167 237.500 43.680 C 237.500 39.466,233.365 34.226,228.750 32.593 C 228.292 32.431,227.767 32.234,227.583 32.155 C 226.177 31.553,222.341 31.234,219.750 31.504 M313.417 31.491 C 310.804 31.785,307.334 33.036,305.903 34.201 C 295.949 42.304,296.641 60.152,307.138 66.040 C 311.071 68.246,319.065 68.935,322.039 67.323 C 322.199 67.237,322.421 67.167,322.533 67.167 C 322.950 67.167,325.453 65.806,326.537 64.990 C 328.528 63.492,330.622 60.432,331.150 58.250 C 331.238 57.883,331.362 57.415,331.425 57.208 L 331.539 56.833 329.109 56.833 L 326.680 56.833 326.492 57.531 C 325.199 62.330,317.129 65.319,311.546 63.066 C 309.172 62.108,307.524 60.842,306.361 59.083 C 306.118 58.717,305.882 58.379,305.835 58.333 C 305.348 57.856,304.249 54.648,304.008 53.000 C 303.907 52.313,303.781 51.506,303.727 51.208 L 303.630 50.667 317.815 50.667 L 332.000 50.667 331.991 48.375 C 331.981 45.812,331.513 43.006,330.813 41.310 C 327.861 34.165,321.511 30.580,313.417 31.491 M250.750 32.360 C 249.375 32.439,248.156 32.539,248.042 32.580 C 247.889 32.636,247.833 33.246,247.833 34.845 L 247.833 37.034 249.292 36.937 C 253.793 36.638,260.446 36.625,261.598 36.914 C 265.097 37.791,266.711 40.008,266.952 44.270 L 267.050 46.000 261.192 46.000 C 253.658 46.000,252.054 46.235,249.000 47.787 C 247.597 48.500,245.333 50.541,245.333 51.092 C 245.333 51.210,245.270 51.331,245.192 51.361 C 245.114 51.392,244.850 51.921,244.605 52.537 C 243.404 55.558,243.576 59.486,245.033 62.321 C 248.168 68.421,258.732 70.013,264.601 65.271 C 265.714 64.372,267.158 62.369,267.629 61.075 C 267.767 60.694,267.810 61.305,267.820 63.792 L 267.833 67.000 269.846 67.000 L 271.859 67.000 271.781 54.458 C 271.734 46.830,271.636 41.623,271.533 41.167 C 270.798 37.927,269.844 36.243,267.922 34.793 C 264.815 32.450,260.290 31.809,250.750 32.360 M317.750 36.015 C 318.575 36.114,319.321 36.264,319.408 36.348 C 319.495 36.432,319.686 36.500,319.833 36.500 C 320.808 36.500,323.398 38.334,324.500 39.806 C 324.729 40.112,324.992 40.449,325.085 40.556 C 325.780 41.358,327.000 44.900,327.000 46.115 L 327.000 46.667 315.479 46.667 L 303.957 46.667 304.069 45.968 C 304.376 44.050,305.449 41.516,306.538 40.138 C 309.270 36.682,312.730 35.410,317.750 36.015 M360.468 36.002 C 364.191 36.485,368.530 39.717,369.416 42.667 C 369.484 42.896,369.594 43.158,369.658 43.250 C 370.623 44.618,371.226 50.408,370.662 52.887 C 369.422 58.334,367.406 60.871,362.483 63.180 C 360.859 63.942,356.246 63.878,354.203 63.065 C 352.691 62.464,351.166 61.625,350.547 61.054 C 350.431 60.947,350.164 60.722,349.954 60.554 C 347.200 58.353,346.079 55.217,346.091 49.750 C 346.101 45.275,346.423 43.847,347.968 41.417 C 348.649 40.346,350.686 38.167,351.007 38.167 C 351.082 38.167,351.242 38.071,351.363 37.953 C 352.861 36.500,357.179 35.575,360.468 36.002 M176.351 39.934 C 178.816 40.566,181.333 43.609,181.333 45.957 C 181.333 46.122,179.830 46.167,174.250 46.167 C 170.354 46.167,167.167 46.110,167.167 46.042 C 167.168 45.973,167.360 45.392,167.594 44.750 C 167.828 44.108,168.062 43.452,168.113 43.292 C 168.164 43.131,168.272 43.000,168.353 43.000 C 168.434 43.000,168.500 42.902,168.500 42.783 C 168.500 42.446,170.079 40.914,170.785 40.566 C 172.550 39.696,174.539 39.470,176.351 39.934 M25.173 40.631 C 26.100 40.999,26.399 41.187,27.426 42.051 C 30.281 44.452,31.022 50.521,28.979 54.777 C 26.896 59.119,20.102 59.998,16.542 56.387 C 15.969 55.806,15.500 55.219,15.500 55.082 C 15.500 54.945,15.443 54.833,15.372 54.833 C 15.217 54.833,14.701 53.418,14.399 52.167 C 13.922 50.183,14.179 46.768,14.940 45.000 C 16.414 41.576,18.574 40.166,22.250 40.229 C 23.864 40.257,24.428 40.335,25.173 40.631 M70.117 40.415 C 78.569 42.584,78.060 57.286,69.492 58.501 C 67.563 58.775,64.827 58.136,63.547 57.112 C 60.591 54.749,59.519 51.169,60.437 46.730 C 61.380 42.170,65.778 39.301,70.117 40.415 M266.945 53.042 C 266.848 56.049,266.654 57.412,266.180 58.417 C 266.093 58.600,265.892 59.041,265.732 59.396 C 263.938 63.389,256.919 65.177,252.288 62.822 C 247.820 60.549,247.513 53.942,251.750 51.246 C 253.650 50.037,254.702 49.895,261.983 49.858 L 267.049 49.833 266.945 53.042 " stroke="none" fill="#fcfcfc" fill-rule="evenodd"></path><path id="path1" d="M382.500 62.417 L 382.500 67.500 387.000 67.500 L 391.500 67.500 391.500 62.417 L 391.500 57.333 387.000 57.333 L 382.500 57.333 382.500 62.417 " stroke="none" fill="#fc3424" fill-rule="evenodd"></path><path id="path2" d="" stroke="none" fill="#fc100c4" fill-rule="evenodd"></path><path id="path3" d="" stroke="none" fill="#fc100c4" fill-rule="evenodd"></path><path id="path4" d="" stroke="none" fill="#fc100c4" fill-rule="evenodd"></path></g></svg>